# xmcd CD database file
#
# Track frame offsets:
#	150
#	18776
#	43968
#	71556
#	98973
#	121054
#	143322
#	165667
#	186789
#
# Disc length: 2851 seconds
#
# Revision: 0
# Processed by: cddbd v1.5.2PL0 Copyright (c) Steve Scherf et al.
# Submitted via: CDex 1.94
#
DISCID=6e0b2109
DTITLE=Angela Puxi - badapapapaa
DYEAR=2015
DGENRE=Jazz
TTITLE0=awake!
TTITLE1=in a sunnymental mood
TTITLE2=inconvenient
TTITLE3=badapapapaa
TTITLE4=je ne sais pas
TTITLE5=the captain's return
TTITLE6=storyboard
TTITLE7=housing to jazz
TTITLE8=faro
EXTD=YEAR: 2015
EXTT0=
EXTT1=
EXTT2=
EXTT3=
EXTT4=
EXTT5=
EXTT6=
EXTT7=
EXTT8=
PLAYORDER=
